<svg width="96" height="96" viewBox="0 0 96 96" fill="none" xmlns="http://www.w3.org/2000/svg">
<path fill-rule="evenodd" clip-rule="evenodd" d="M31.7197 4.9043H6.81968C5.76184 4.9043 4.9043 5.76184 4.9043 6.81968V31.7197C4.9043 32.7775 5.76184 33.635 6.81968 33.635H31.7197C32.7775 33.635 33.635 32.7775 33.635 31.7197V6.81968C33.635 5.76184 32.7775 4.9043 31.7197 4.9043ZM60.4621 33.6359H35.5622C34.5043 33.6359 33.6468 34.4935 33.6468 35.5513V60.4513C33.6468 61.5091 34.5043 62.3667 35.5622 62.3667H60.4621C61.52 62.3667 62.3775 61.5091 62.3775 60.4513V35.5513C62.3775 34.4935 61.52 33.6359 60.4621 33.6359ZM64.2804 4.9043H89.1804C90.2382 4.9043 91.0958 5.76184 91.0958 6.81968V31.7197C91.0958 32.7775 90.2382 33.635 89.1804 33.635H64.2804C63.2226 33.635 62.365 32.7775 62.365 31.7197V6.81968C62.365 5.76184 63.2226 4.9043 64.2804 4.9043ZM31.7197 62.365H6.81968C5.76184 62.365 4.9043 63.2226 4.9043 64.2804V89.1804C4.9043 90.2382 5.76184 91.0958 6.81968 91.0958H31.7197C32.7775 91.0958 33.635 90.2382 33.635 89.1804V64.2804C33.635 63.2226 32.7775 62.365 31.7197 62.365ZM64.2804 62.365H89.1804C90.2382 62.365 91.0958 63.2226 91.0958 64.2804V89.1804C91.0958 90.2382 90.2382 91.0958 89.1804 91.0958H64.2804C63.2226 91.0958 62.365 90.2382 62.365 89.1804V64.2804C62.365 63.2226 63.2226 62.365 64.2804 62.365Z" fill="black"/>
</svg>
